<svg width="1440" height="1024" viewBox="0 0 1440 1024" fill="none" xmlns="http://www.w3.org/2000/svg">
<g clip-path="url(#clip0_2_2)">
<circle cx="720" cy="512" r="195" stroke="#C90000" stroke-width="10"/>
<line x1="739" y1="747" x2="739" y2="707" stroke="#C90000" stroke-width="10"/>
<line x1="700" y1="747" x2="700" y2="707" stroke="#C90000" stroke-width="10"/>
<line x1="680" y1="979" x2="680" y2="757" stroke="#C90000" stroke-width="10"/>
<line x1="759" y1="978.976" x2="759.965" y2="756.978" stroke="#C90000" stroke-width="10"/>
<line x1="675" y1="752" x2="765" y2="752" stroke="#C90000" stroke-width="10"/>
<path d="M680 979C680 1031 759 1031 759 979" stroke="#C90000" stroke-width="10"/>
<path d="M718.439 622.07C719.025 622.656 719.975 622.656 720.561 622.07L730.107 612.524C730.692 611.938 730.692 610.988 730.107 610.403C729.521 609.817 728.571 609.817 727.985 610.403L719.5 618.888L711.015 610.403C710.429 609.817 709.479 609.817 708.893 610.403C708.308 610.988 708.308 611.938 708.893 612.524L718.439 622.07ZM720.561 400.939C719.975 400.354 719.025 400.354 718.439 400.939L708.893 410.485C708.308 411.071 708.308 412.021 708.893 412.607C709.479 413.192 710.429 413.192 711.015 412.607L719.5 404.121L727.985 412.607C728.571 413.192 729.521 413.192 730.107 412.607C730.692 412.021 730.692 411.071 730.107 410.485L720.561 400.939ZM719.5 621.009H721V402H719.5H718V621.009H719.5Z" fill="#C90000"/>
</g>
<defs>
<clipPath id="clip0_2_2">
<rect width="1440" height="1024" fill="white"/>
</clipPath>
</defs>
</svg>
